<?xml version="1.0" encoding="UTF-8" standalone="no"?>
<!DOCTYPE svg PUBLIC "-//W3C//DTD SVG 1.1//EN" "http://www.w3.org/Graphics/SVG/1.1/DTD/svg11.dtd">
<svg width="100%" height="100%" viewBox="0 0 65 65" version="1.1" xmlns="http://www.w3.org/2000/svg" xmlns:xlink="http://www.w3.org/1999/xlink" xml:space="preserve" xmlns:serif="http://www.serif.com/" style="fill-rule:evenodd;clip-rule:evenodd;stroke-linejoin:round;stroke-miterlimit:1.41421;">
    <g transform="matrix(0.140086,0,0,0.140086,0,0)">
        <path d="M370.802,365.011C369.05,351.869 360.9,340.45 349.041,334.521L331.809,325.905C329.242,324.621 326.299,325.76 325.043,328.195L316.36,325C376.227,308.691 408,280 408,280C376.5,218.5 385,125 360,72C335,19 288,0 232,0C176,0 129,19 104,72C79,125 87.5,218.5 56,280C56,280 87.774,308.69 147.641,324.999L138.959,328.194C137.717,325.756 134.779,324.61 132.217,325.891L116.503,333.748C103.093,340.453 94.951,351.869 93.199,365.01L92.811,367.918L92.811,367.919L83.623,436.827C81.705,451.216 92.898,464 107.413,464L356.588,464C371.103,464 382.296,451.216 380.377,436.828L370.802,365.011Z" style="fill:rgb(255,215,163);fill-rule:nonzero;"/>
        <path d="M360,72C335,19 288,0 232,0C176,0 129,19 104,72C79,125 87.5,218.5 56,280C56,280 118,336 232,336C346,336 408,280 408,280C376.5,218.5 385,125 360,72Z" style="fill:rgb(157,110,72);fill-rule:nonzero;"/>
        <path d="M184,143C184,87 204.909,34.707 247.137,0.55C242.164,0.219 237.135,0 232,0C176,0 129,19 104,72C79,125 87.5,218.5 56,280C56,280 101.431,319.895 184,332.264C184,332.265 184,187 184,143Z" style="fill:rgb(141,95,61);fill-rule:nonzero;"/>
        <g>
            <path d="M371.19,367.921C369.228,353.209 359.282,340.793 345.353,335.668L290.941,315.648C284.408,313.47 280.001,307.356 280.001,300.469L280.001,248L184.001,248L184.001,300.468C184.001,307.355 179.594,313.469 173.061,315.647L118.649,335.667C104.72,340.792 94.774,353.208 92.812,367.92L83.624,436.828C81.706,451.216 92.899,464 107.413,464L356.589,464C371.104,464 382.297,451.216 380.378,436.828L371.19,367.921Z" style="fill:rgb(255,215,163);fill-rule:nonzero;"/>
            <path d="M184,300.469C184,300.86 183.983,301.246 183.954,301.63C183.94,301.83 183.914,302.026 183.892,302.225C183.874,302.385 183.858,302.545 183.835,302.703C183.792,303.01 183.737,303.312 183.677,303.614C183.676,303.62 183.675,303.627 183.673,303.633C182.785,308.033 180.086,311.861 176.249,314.171C243.173,325.732 280,274.667 280,274.667L184,274L184,300.469Z" style="fill:rgb(253,200,142);fill-rule:nonzero;"/>
        </g>
        <path d="M344,160L344,144C344,121.909 326.091,104 304,104L160,104C137.909,104 120,121.909 120,144L120,160C106.745,160 96,170.746 96,184C96,197.255 106.745,208 120,208L120,216C120,235.377 131.651,252.854 149.538,260.308L201.229,281.846C210.979,285.909 221.437,288 231.999,288C242.561,288 253.018,285.908 262.768,281.846L314.462,260.307C332.349,252.855 344,235.378 344,216L344,208C357.255,208 368,197.255 368,184C368,170.745 357.255,160 344,160Z" style="fill:rgb(255,225,178);fill-rule:nonzero;"/>
        <path d="M302,127.625L302,107L144.811,107C130.255,112.981 120,127.288 120,144L120,160C106.745,160 96,170.745 96,184C96,197.255 106.745,208 120,208L120,216C120,235.378 131.651,252.855 149.538,260.308L201.228,281.846C203.758,282.9 206.34,283.808 208.955,284.595C186.111,267.884 170.905,253.275 161.995,243.723C155.513,236.773 152,227.602 152,218.098L152,159.888C177.806,159.253 259.684,155.067 302,127.625Z" style="fill:rgb(255,215,163);fill-rule:nonzero;"/>
        <path d="M176,192C171.6,192 168,188.4 168,184L168,176C168,171.6 171.6,168 176,168C180.4,168 184,171.6 184,176L184,184C184,188.4 180.4,192 176,192Z" style="fill:rgb(98,63,51);fill-rule:nonzero;"/>
        <path d="M288,192C283.6,192 280,188.4 280,184L280,176C280,171.6 283.6,168 288,168C292.4,168 296,171.6 296,176L296,184C296,188.4 292.4,192 288,192Z" style="fill:rgb(98,63,51);fill-rule:nonzero;"/>
        <path d="M232,248.219C217.777,248.219 204.473,244.719 195.5,238.614C191.848,236.13 190.898,231.153 193.387,227.501C195.867,223.853 200.848,222.903 204.5,225.388C210.789,229.665 221.07,232.22 232,232.22C242.93,232.22 253.211,229.665 259.5,225.388C263.16,222.896 268.129,223.849 270.613,227.501C273.101,231.153 272.152,236.13 268.5,238.614C259.528,244.719 246.223,248.219 232,248.219Z" style="fill:rgb(228,176,123);fill-rule:nonzero;"/>
        <path d="M136,144C136,144 187,149 216,136C220.081,134.171 232,108 232,108L232,144C232,144 268.786,142.097 307,126.674L307,98L130.55,98C134.183,116.297 136,144 136,144Z" style="fill:rgb(157,110,72);fill-rule:nonzero;"/>
        <path d="M349.041,334.521L331.809,325.905C328.889,324.445 325.482,326.117 324.625,329.267C313.535,370.028 276.273,400.003 231.999,400.003C187.714,400.003 150.444,370.013 139.364,329.236C138.512,326.102 135.122,324.439 132.218,325.891L116.504,333.748C103.094,340.453 94.952,351.869 93.2,365.01L83.624,436.827C81.706,451.215 92.899,463.999 107.413,463.999L356.589,463.999C371.104,463.999 382.297,451.215 380.378,436.827L370.802,365.01C369.05,351.87 360.9,340.45 349.041,334.521Z" style="fill:rgb(255,100,115);fill-rule:nonzero;"/>
        <path d="M96.843,353.124C95.03,356.858 93.756,360.832 93.198,365.011L83.622,436.828C81.704,451.216 92.897,464 107.412,464L144,464L144,432C144,421.614 140.631,411.509 134.4,403.2L96.843,353.124Z" style="fill:rgb(240,84,103);fill-rule:nonzero;"/>
        <path d="M367.157,353.124C368.97,356.858 370.244,360.832 370.802,365.011L380.378,436.828C382.296,451.216 371.103,464 356.588,464L320,464L320,432C320,421.614 323.368,411.509 329.6,403.2L367.157,353.124Z" style="fill:rgb(240,84,103);fill-rule:nonzero;"/>
        <path d="M332,103.649C332,114.419 310.27,123.149 299.5,123.149C288.73,123.149 280,114.419 280,103.649C280,92.879 288.73,84.149 299.5,84.149C310.27,84.149 332,92.88 332,103.649Z" style="fill:rgb(189,68,90);fill-rule:nonzero;"/>
        <path d="M332,103.649C332,92.879 353.73,84.149 364.5,84.149C375.27,84.149 384,92.879 384,103.649C384,114.419 375.27,123.149 364.5,123.149C353.73,123.149 332,114.419 332,103.649Z" style="fill:rgb(189,68,90);fill-rule:nonzero;"/>
        <path d="M332,103.649C341.327,109.034 338.022,132.218 332.638,141.545C327.253,150.872 315.327,154.067 306,148.683C296.673,143.299 293.478,131.372 298.862,122.045C304.248,112.718 322.674,98.264 332,103.649Z" style="fill:rgb(255,100,115);fill-rule:nonzero;"/>
        <path d="M332,103.649C322.673,98.264 325.978,75.08 331.363,65.753C336.748,56.426 348.674,53.231 358.001,58.615C367.328,63.999 370.523,75.926 365.139,85.253C359.753,94.58 341.327,109.034 332,103.649Z" style="fill:rgb(255,100,115);fill-rule:nonzero;"/>
        <path d="M332,103.649C322.673,109.034 325.978,132.218 331.363,141.545C336.748,150.872 348.674,154.067 358.001,148.683C367.328,143.299 370.523,131.372 365.139,122.045C359.753,112.718 341.327,98.264 332,103.649Z" style="fill:rgb(240,84,103);fill-rule:nonzero;"/>
        <path d="M332,103.649C341.327,98.264 338.022,75.08 332.638,65.753C327.253,56.426 315.327,53.231 306,58.615C296.673,63.999 293.478,75.926 298.862,85.253C304.248,94.58 322.674,109.034 332,103.649Z" style="fill:rgb(240,84,103);fill-rule:nonzero;"/>
        <circle cx="332" cy="103.649" r="13" style="fill:white;"/>
        <path d="M130.546,98C134.181,116.297 136.001,144 136.001,144C136.001,144 159.072,146.249 183.001,143.775C183.001,143.519 183.001,143.25 183.001,143C183.001,127.614 184.701,112.524 187.982,98L130.546,98Z" style="fill:rgb(141,95,61);fill-rule:nonzero;"/>
    </g>
</svg>
