<?xml version="1.0" standalone="no"?>
<!DOCTYPE svg PUBLIC "-//W3C//DTD SVG 20010904//EN"
 "http://www.w3.org/TR/2001/REC-SVG-20010904/DTD/svg10.dtd">
<svg version="1.0" xmlns="http://www.w3.org/2000/svg"
 width="2000.000000pt" height="2000.000000pt" viewBox="0 0 2000.000000 2000.000000"
 preserveAspectRatio="xMidYMid meet">

<g transform="translate(0.000000,2000.000000) scale(0.100000,-0.100000)"
fill="#000000" stroke="none">
<path d="M0 10000 l0 -10000 10000 0 10000 0 0 10000 0 10000 -10000 0 -10000
0 0 -10000z m14353 9660 c280 -60 452 -144 603 -294 343 -343 433 -964 283
-1941 -37 -239 -177 -1057 -229 -1330 -167 -890 -470 -2333 -720 -3434 -86
-376 -116 -499 -258 -1051 -58 -225 -101 -420 -266 -1210 -75 -357 -264 -1225
-271 -1247 -3 -8 -31 0 -87 24 -200 85 -515 202 -788 294 -477 159 -834 254
-1345 359 -159 33 -398 82 -530 109 -434 90 -488 96 -830 96 -381 -1 -615 -27
-935 -105 -263 -64 -416 -124 -742 -288 -4 -2 -183 349 -398 779 -280 559
-394 778 -401 768 -5 -8 -9 -9 -9 -2 0 6 -34 94 -76 195 -256 614 -1034 2832
-1454 4143 -104 325 -344 1117 -409 1350 -266 953 -228 1606 115 1965 126 131
288 228 502 300 151 51 256 70 407 77 243 10 402 -24 620 -132 304 -151 471
-327 639 -675 118 -246 224 -531 440 -1188 57 -174 154 -461 214 -637 1017
-2958 1133 -3289 1329 -3815 154 -414 335 -808 451 -985 67 -103 203 -234 283
-274 132 -65 220 -75 322 -38 95 35 155 73 223 142 127 129 214 311 334 701
133 429 245 926 660 2904 100 476 228 1086 285 1355 57 270 154 738 214 1040
182 907 269 1215 417 1466 59 101 213 264 334 356 153 115 383 214 565 243
103 15 396 4 508 -20z m-7873 -8271 c155 -22 356 -104 475 -194 77 -58 195
-174 195 -192 0 -7 19 -37 41 -66 115 -145 156 -232 342 -722 272 -717 330
-878 321 -890 -93 -123 -121 -166 -163 -250 -61 -124 -112 -270 -142 -406 -19
-88 -23 -133 -23 -299 0 -176 2 -206 26 -307 32 -135 92 -288 155 -398 145
-253 274 -375 548 -517 131 -68 178 -87 355 -147 l135 -47 12 -49 c54 -218 32
-459 -60 -640 -146 -291 -393 -457 -736 -496 -438 -49 -945 250 -1257 743 -88
140 -247 420 -415 733 -127 237 -206 399 -615 1245 -131 272 -246 506 -256
520 -22 31 -183 391 -249 556 -92 230 -122 383 -122 624 0 192 18 311 69 469
109 333 325 549 657 659 256 85 461 105 707 71z m3947 -1904 c193 -20 299 -37
568 -95 862 -185 1618 -424 2235 -705 212 -96 261 -121 400 -205 438 -264 795
-603 1030 -980 127 -203 249 -496 309 -741 180 -743 157 -2056 -54 -2993 -111
-492 -270 -867 -518 -1216 -164 -230 -376 -473 -608 -696 -628 -603 -1507
-1063 -2499 -1309 -517 -127 -998 -196 -1590 -226 -344 -18 -1184 3 -1490 36
-1346 148 -2482 859 -3149 1974 -98 163 -177 328 -246 514 -35 95 -84 226
-110 291 -103 265 -291 864 -479 1526 -132 464 -286 1024 -282 1027 2 2 30
-45 64 -104 178 -319 427 -628 644 -800 203 -161 451 -273 711 -319 111 -20
349 -23 462 -5 200 31 432 110 579 199 192 115 368 353 427 577 25 94 36 331
22 437 -11 76 -14 76 72 4 189 -157 455 -284 703 -336 141 -30 376 -37 519
-16 227 34 330 70 478 168 244 160 418 390 510 672 54 166 69 274 70 499 l0
198 30 -5 c75 -13 214 -28 520 -56 835 -77 1114 -136 1483 -315 418 -203 657
-442 733 -733 16 -61 19 -93 14 -157 -14 -174 -62 -360 -137 -528 -37 -84 -41
-101 -45 -197 -4 -95 -2 -109 19 -150 35 -68 75 -90 163 -90 147 0 306 71 425
190 97 96 165 227 211 405 128 499 -76 974 -598 1396 -214 172 -422 278 -792
403 -409 139 -677 197 -1151 251 -468 52 -570 66 -735 100 -517 104 -974 302
-1125 487 -70 86 -135 223 -156 328 -31 156 -5 324 76 498 51 109 110 190 201
278 318 305 785 485 1389 534 141 12 521 3 697 -15z m-5862 -293 c102 -28 203
-73 287 -127 71 -47 268 -233 268 -254 0 -5 25 -45 56 -88 82 -115 114 -173
307 -558 175 -351 317 -649 472 -995 46 -102 101 -224 124 -273 252 -543 394
-953 417 -1207 12 -141 -58 -344 -165 -476 -129 -159 -358 -281 -616 -329
-132 -25 -329 -17 -450 19 -199 59 -402 186 -584 366 -182 179 -218 232 -665
969 -122 201 -253 418 -290 481 -38 63 -75 120 -82 126 -16 13 -183 355 -248
508 -102 237 -139 427 -139 701 0 317 57 543 188 746 136 211 371 346 705 405
104 18 323 11 415 -14z m-908 -2414 c-3 -8 -6 -5 -6 6 -1 11 2 17 5 13 3 -3 4
-12 1 -19z m10 -40 c-3 -8 -6 -5 -6 6 -1 11 2 17 5 13 3 -3 4 -12 1 -19z m40
-150 c-3 -8 -6 -5 -6 6 -1 11 2 17 5 13 3 -3 4 -12 1 -19z m10 -40 c-3 -8 -6
-5 -6 6 -1 11 2 17 5 13 3 -3 4 -12 1 -19z m10 -40 c-3 -8 -6 -5 -6 6 -1 11 2
17 5 13 3 -3 4 -12 1 -19z m10 -40 c-3 -8 -6 -5 -6 6 -1 11 2 17 5 13 3 -3 4
-12 1 -19z m20 -70 c-3 -8 -6 -5 -6 6 -1 11 2 17 5 13 3 -3 4 -12 1 -19z m10
-40 c-3 -8 -6 -5 -6 6 -1 11 2 17 5 13 3 -3 4 -12 1 -19z m10 -40 c-3 -8 -6
-5 -6 6 -1 11 2 17 5 13 3 -3 4 -12 1 -19z m10 -40 c-3 -8 -6 -5 -6 6 -1 11 2
17 5 13 3 -3 4 -12 1 -19z m20 -70 c-3 -8 -6 -5 -6 6 -1 11 2 17 5 13 3 -3 4
-12 1 -19z m10 -40 c-3 -8 -6 -5 -6 6 -1 11 2 17 5 13 3 -3 4 -12 1 -19z m10
-40 c-3 -8 -6 -5 -6 6 -1 11 2 17 5 13 3 -3 4 -12 1 -19z m10 -40 c-3 -8 -6
-5 -6 6 -1 11 2 17 5 13 3 -3 4 -12 1 -19z m20 -70 c-3 -8 -6 -5 -6 6 -1 11 2
17 5 13 3 -3 4 -12 1 -19z m10 -40 c-3 -8 -6 -5 -6 6 -1 11 2 17 5 13 3 -3 4
-12 1 -19z m10 -40 c-3 -8 -6 -5 -6 6 -1 11 2 17 5 13 3 -3 4 -12 1 -19z"/>
</g>
</svg>
