<?xml version="1.0" standalone="no"?>
<!DOCTYPE svg PUBLIC "-//W3C//DTD SVG 20010904//EN"
 "http://www.w3.org/TR/2001/REC-SVG-20010904/DTD/svg10.dtd">
<svg version="1.0" xmlns="http://www.w3.org/2000/svg"
 width="64.000000pt" height="64.000000pt" viewBox="0 0 64.000000 64.000000"
 preserveAspectRatio="xMidYMid meet">

<g transform="translate(0.000000,64.000000) scale(0.100000,-0.100000)"
fill="#000000" stroke="none">
<path d="M0 320 l0 -320 320 0 320 0 0 320 0 320 -320 0 -320 0 0 -320z m488
261 c2 -24 -9 -99 -24 -166 l-26 -122 -47 14 c-25 8 -64 12 -87 10 -38 -4 -41
-2 -63 36 -33 57 -71 174 -71 218 0 29 5 39 20 44 44 14 57 -2 96 -115 20 -61
43 -115 50 -121 14 -12 31 38 54 156 17 85 25 97 63 93 30 -3 32 -6 35 -47z
m-253 -240 c9 -18 12 -41 9 -59 -5 -22 -1 -34 17 -50 18 -17 20 -24 10 -36
-18 -22 -40 -9 -72 42 -34 54 -36 51 -8 -12 22 -51 19 -66 -15 -66 -24 0 -76
67 -76 99 0 22 19 41 42 41 13 0 18 8 18 29 0 48 52 56 75 12z m172 -57 c48
-14 57 -21 70 -52 17 -41 12 -105 -12 -151 -22 -43 -88 -71 -166 -71 -98 0
-135 29 -164 125 l-15 49 23 -22 c28 -27 51 -28 69 -4 7 9 26 17 43 17 23 0
31 5 33 23 4 25 15 27 61 11 23 -8 31 -17 31 -35 0 -27 15 -32 24 -8 10 25
-35 60 -88 68 -50 8 -67 26 -46 51 16 19 68 19 137 -1z"/>
</g>
</svg>
