<?xml version="1.0" encoding="UTF-8" standalone="no"?>
<!DOCTYPE svg PUBLIC "-//W3C//DTD SVG 1.1//EN" "http://www.w3.org/Graphics/SVG/1.1/DTD/svg11.dtd">
<svg width="100%" height="100%" viewBox="0 0 66 74" version="1.1" xmlns="http://www.w3.org/2000/svg" xmlns:xlink="http://www.w3.org/1999/xlink" xml:space="preserve" xmlns:serif="http://www.serif.com/" style="fill-rule:evenodd;clip-rule:evenodd;stroke-linejoin:round;stroke-miterlimit:1.41421;">
    <g id="Artboard1" transform="matrix(1,0,0,1,-93.5546,-99.1233)">
        <rect x="93.555" y="99.123" width="65.34" height="73.136" style="fill:none;"/>
        <g transform="matrix(0.271114,0,0,0.242514,91.5009,104.444)">
            <path d="M218.783,146.7C217.547,133.822 213.063,124.003 205.457,117.514C199.956,112.821 194.003,110.905 189.227,110.194C183.636,101.75 175.458,96.596 165.665,95.309C171.294,74.163 181.124,39.608 182.019,36.466C184.85,27.724 183.613,19.033 178.521,11.965C173.204,4.586 164.082,0.001 154.716,0C142.465,-0.001 132.454,7.448 128.592,19.44C128.568,19.515 128.544,19.59 128.522,19.667L112.894,71.681L98.419,26.767C95.085,13.784 84.5,5.425 71.323,5.425C62.233,5.425 53.566,9.538 48.137,16.429C42.857,23.132 41.123,31.704 43.257,40.567L61.12,114.854C57.173,116.656 53.656,119.197 50.765,122.361C45.225,128.424 42.049,136.51 41.325,146.395C39.909,165.72 57.13,192.795 74.162,216.731C74.681,217.46 75.161,218.134 75.572,218.717L78.346,244.029C79.18,253.211 86.992,260.246 96.236,260.246L168.726,260.246C178.072,260.246 185.894,253.123 186.632,243.831L188.856,220.936C189.051,220.659 189.26,220.393 189.482,220.078C203.214,200.585 221.191,171.8 218.783,146.7ZM177.047,218.448L174.677,242.802C174.467,245.935 171.865,248.245 168.727,248.245L96.237,248.245C93.122,248.245 90.532,245.97 90.292,242.864L87.356,216.01C87.275,214.963 86.92,213.991 86.327,213.125C80.798,205.072 51.855,166.892 53.295,147.257C54.473,131.184 63.521,126.086 69.728,124.483C72.889,123.666 74.821,120.491 74.057,117.316L54.924,37.755C51.91,25.239 61.696,17.424 71.322,17.424C78.08,17.424 84.76,21.278 86.874,30.064L104.627,85.151C105.94,89.224 109.469,91.25 112.997,91.25C116.586,91.25 120.174,89.154 121.427,84.984L140.014,23.12C142.527,15.319 148.58,12 154.715,12C164.586,12.001 174.668,20.595 170.544,32.95C170.544,32.95 157.299,79.404 152.118,99.681C151.153,103.454 154.002,107.115 157.806,107.115C157.971,107.115 158.139,107.107 158.308,107.093C159.079,107.029 159.883,106.991 160.712,106.991C167.157,106.991 175.123,109.259 180.361,118.698C181.385,120.544 183.256,121.738 185.364,121.851C191.679,122.191 204.705,125.626 206.838,147.846C209.294,173.438 183.322,207.821 178.073,215.483C177.469,216.364 177.119,217.383 177.047,218.448Z" style="fill:rgb(212,149,61);fill-rule:nonzero;"/>
        </g>
    </g>
</svg>
